<svg width="77" height="78" viewBox="0 0 77 78" fill="none" xmlns="http://www.w3.org/2000/svg">
<path opacity="0.2" d="M16.5 45C25.3366 45 32.5 52.1634 32.5 61C32.5 69.8366 25.3366 77 16.5 77C7.66345 77 0.5 69.8366 0.499999 61C0.499999 52.1634 7.66345 45 16.5 45ZM60.5 45C69.3365 45 76.5 52.1634 76.5 61C76.5 69.8365 69.3365 77 60.5 77C51.6634 77 44.5 69.8366 44.5 61C44.5 52.1634 51.6634 45 60.5 45ZM16.5 0.999999C25.3366 0.999999 32.5 8.16345 32.5 17C32.5 25.8366 25.3366 33 16.5 33C7.66345 33 0.499998 25.8366 0.499997 17C0.499997 8.16345 7.66344 1 16.5 0.999999ZM60.5 0.999997C69.3365 0.999997 76.5 8.16345 76.5 17C76.5 25.8366 69.3365 33 60.5 33C51.6634 33 44.5 25.8366 44.5 17C44.5 8.16345 51.6634 0.999998 60.5 0.999997Z" stroke="#93C953"/>
</svg>
