<?xml version="1.0" encoding="UTF-8"?><svg id="Layer_2" xmlns="http://www.w3.org/2000/svg" viewBox="0 0 1200 675.96"><defs><style>.cls-1,.cls-2,.cls-3,.cls-4,.cls-5{stroke-miterlimit:10;stroke-width:1.98px;}.cls-1,.cls-2,.cls-3,.cls-4,.cls-5,.cls-6,.cls-7,.cls-8,.cls-9{stroke:#232f3e;}.cls-1,.cls-2,.cls-3,.cls-5{stroke-linecap:round;}.cls-1,.cls-6,.cls-10{fill:#fff;}.cls-2,.cls-7{fill:#3e8dff;}.cls-3,.cls-8{fill:#bbf8ff;}.cls-4,.cls-9,.cls-11{fill:#7638fa;}.cls-5{fill:none;}.cls-6,.cls-7,.cls-8,.cls-9{stroke-linejoin:round;}.cls-11,.cls-12,.cls-10{stroke-width:0px;}.cls-12{fill:#232f3e;}</style></defs><g id="Layer_1-2"><rect class="cls-12" width="1200" height="674.97"/><path class="cls-1" d="m107.87,524.54s17.23,23.34,17.23,67.97h125.03l-24.17-114.53-118.08,46.56Z"/><path class="cls-1" d="m201.15,533.63c56.5-12.6,85.2-26.46,96.2-65.48,3.67-13.02,8.59-28.43-1.33-67.77-4.14-16.41,4.46-32.95,4.46-32.95,7.28-9.89-1.81-24.91-17.73-21.5-26.34,5.64-31.76-15.77-45.1-26.55-15.59-12.59-38.33-21.26-57.92-22.05,1.57,90.71-24.34,172.63-67.12,229.28"/><path class="cls-2" d="m205.17,254.15c.87,23.78-22.83,23.29-22.83,23.29-3.61-.15-9.96-.16-13.63-.02-78.28,2.85-144.63,60.63-136.58,146.89,2.62,28,10.18,53.96,25.11,75.44,16.29,5.12,31.74,12.16,46.1,20.86,3,2.13,6.09,4.14,9.27,6.01,39.92-52.85,65.14-127.71,67.06-211.18,59.91-9.82,25.49-61.29,25.49-61.29Z"/><path class="cls-1" d="m188.35,393.29c-3.73-1.86-7.9-2.99-12.34-3.19-16.93-.76-31.27,12.36-32.03,29.29-.76,16.93,12.36,31.27,29.29,32.03,12.44.56,23.47-6.37,28.76-16.8"/><path class="cls-1" d="m179.57,409.25c-1.56-.78-3.3-1.25-5.15-1.33-7.07-.32-13.05,5.16-13.36,12.22-.32,7.07,5.16,13.05,12.22,13.36,5.19.23,9.8-2.66,12-7.01"/><rect class="cls-3" x="260.64" y="317.14" width="7.22" height="67.67" rx="2.22" ry="2.22" transform="translate(-152.89 213.1) rotate(-34.73)"/><line class="cls-5" x1="185.82" y1="391.45" x2="254.11" y2="344.11"/><path class="cls-5" d="m144.01,420.28s-17.7,8.96-5.2,24.97"/><path class="cls-4" d="m270.28,650.04h-139.13c-3.39,0-6.7-2.64-7.4-5.89l-13.69-63.83c-2.05-9.55,4.35-17.29,14.29-17.29h117.29c9.94,0,19.66,7.74,21.71,17.29l13.3,62.01c.91,4.26-1.94,7.71-6.37,7.71Z"/><line class="cls-4" x1="124.68" y1="563.03" x2="143.35" y2="650.04"/><line class="cls-4" x1="144.12" y1="563.03" x2="162.79" y2="650.04"/><line class="cls-4" x1="163.56" y1="563.03" x2="182.22" y2="650.04"/><line class="cls-4" x1="183" y1="563.03" x2="201.66" y2="650.04"/><line class="cls-4" x1="202.44" y1="563.03" x2="221.1" y2="650.04"/><line class="cls-4" x1="221.88" y1="563.03" x2="240.54" y2="650.04"/><line class="cls-4" x1="241.32" y1="563.03" x2="259.98" y2="650.04"/><path class="cls-4" d="m329.08,674.97c-17.96-40.22-58.39-68.43-105.09-68.43h-104.4c-46.7,0-87.13,28.21-105.09,68.43h314.58Z"/><circle class="cls-12" cx="236.41" cy="368.38" r="7.25"/><circle class="cls-1" cx="941.47" cy="87.17" r="44.83"/><circle class="cls-1" cx="941.47" cy="87.17" r="35.99"/><path class="cls-1" d="m961.84,91.85v5.05c0,5.19-3.79,11-8.56,11h-30.39v-9.88h5.06v-7.8h-3.93v-8.04h3.93v-5.29c0-9.89,6.38-15.36,14.8-15.36s15.57,5.32,15.57,16.9h-9.19c0-5.19-2.53-7.51-6.24-7.51-3.3,0-5.68,2.81-5.68,7.01v4.24h8.42v8.04h-8.42v7.8h13.4c1.61,0,2.03-1.05,2.03-2.6v-3.58h9.19Z"/><rect class="cls-6" x="389.85" y="67.77" width="19.4" height="19.4"/><rect class="cls-6" x="469.48" y="111.71" width="98.7" height="19.4"/><rect class="cls-8" x="587.57" y="111.71" width="49.35" height="19.4"/><rect class="cls-6" x="389.85" y="111.71" width="19.4" height="19.4"/><rect class="cls-8" x="492.77" y="155.65" width="160.72" height="19.4"/><rect class="cls-9" x="672.89" y="155.65" width="86.99" height="19.4"/><rect class="cls-6" x="389.85" y="155.65" width="19.4" height="19.4"/><rect class="cls-7" x="492.77" y="199.59" width="282.89" height="19.41"/><rect class="cls-7" x="795.06" y="199.59" width="77.51" height="19.41"/><rect class="cls-6" x="389.85" y="199.59" width="19.4" height="19.41"/><rect class="cls-8" x="492.77" y="243.53" width="102.79" height="19.4"/><rect class="cls-9" x="614.95" y="243.53" width="213.38" height="19.4"/><rect class="cls-6" x="389.85" y="243.53" width="19.4" height="19.4"/><rect class="cls-8" x="492.77" y="287.47" width="222.86" height="19.4"/><rect class="cls-9" x="735.03" y="287.47" width="104.9" height="19.4"/><rect class="cls-6" x="389.85" y="287.47" width="19.4" height="19.4"/><rect class="cls-9" x="492.77" y="331.41" width="219.7" height="19.4"/><rect class="cls-7" x="731.87" y="331.41" width="194.42" height="19.4"/><rect class="cls-6" x="389.85" y="331.41" width="19.4" height="19.4"/><rect class="cls-6" x="469.48" y="375.35" width="108.18" height="19.4"/><rect class="cls-6" x="389.85" y="375.35" width="19.4" height="19.4"/><rect class="cls-7" x="492.77" y="419.29" width="145.97" height="19.4"/><rect class="cls-8" x="658.14" y="419.29" width="346.08" height="19.4"/><rect class="cls-6" x="389.85" y="419.29" width="19.4" height="19.4"/><rect class="cls-8" x="492.77" y="463.23" width="142.81" height="19.4"/><rect class="cls-9" x="654.98" y="463.23" width="237.61" height="19.4"/><rect class="cls-7" x="911.98" y="463.23" width="41.71" height="19.4"/><rect class="cls-6" x="389.85" y="463.23" width="19.4" height="19.4"/><rect class="cls-9" x="492.77" y="507.17" width="70.14" height="19.4"/><rect class="cls-7" x="582.31" y="507.17" width="331.34" height="19.4"/><rect class="cls-6" x="389.85" y="507.17" width="19.4" height="19.4"/><rect class="cls-6" x="469.48" y="551.11" width="69.21" height="19.4"/><rect class="cls-6" x="389.85" y="551.11" width="19.4" height="19.4"/><rect class="cls-6" x="442.84" y="51.27" width="9.48" height="570.85"/><path class="cls-6" d="m580.41,622.76c-1.24-1.24-1.24-3.24,0-4.47h0l14.01-14.01-14.01-14.01c-1.23-1.23-1.23-3.24,0-4.47h0c1.23-1.24,3.23-1.24,4.47,0h0l16.24,16.24c.6.59.92,1.4.92,2.24h0c0,.84-.32,1.63-.92,2.23h0l-16.24,16.24c-.62.62-1.43.93-2.24.93h0c-.81,0-1.62-.31-2.23-.93h0Z"/><path class="cls-6" d="m506.77,622.76l-16.24-16.24c-1.23-1.24-1.24-3.24,0-4.48h0l16.24-16.24h0c1.24-1.23,3.24-1.23,4.48.01h0c1.23,1.22,1.23,3.23,0,4.47h0l-14.02,14.01,14.02,14.01c1.23,1.23,1.23,3.23,0,4.47h0c-.62.62-1.43.92-2.24.92h0c-.81,0-1.62-.31-2.24-.93h0Z"/><path class="cls-6" d="m528.65,621.04c-1.24-1.24-1.24-3.24,0-4.47h0l29.01-29.02c1.24-1.24,3.25-1.24,4.48,0h0c1.23,1.23,1.23,3.23,0,4.47h0l-29.02,29.02c-.62.62-1.43.92-2.24.92h0c-.81,0-1.62-.3-2.23-.92h0Z"/><path class="cls-6" d="m580.41,96.89c-1.24-1.24-1.24-3.24,0-4.48h0l14.01-14.01-14.01-14.01h0c-1.24-1.22-1.24-3.23,0-4.47h0c1.23-1.23,3.23-1.23,4.47,0h0l16.24,16.24c.6.6.92,1.39.92,2.24h0c0,.84-.32,1.63-.92,2.23h0l-16.24,16.24c-.62.62-1.42.93-2.23.93h0c-.81,0-1.62-.3-2.23-.93h0Z"/><path class="cls-6" d="m506.77,96.89l-16.24-16.24c-1.24-1.24-1.24-3.24,0-4.47h0l16.24-16.24h0c1.24-1.23,3.24-1.23,4.47,0h0c1.23,1.24,1.23,3.24,0,4.47h0l-14.01,14.01,14.01,14.01c1.23,1.24,1.23,3.24,0,4.47h0c-.61.62-1.43.93-2.24.93h0c-.81,0-1.62-.31-2.23-.93h0Z"/><path class="cls-6" d="m528.65,95.17c-1.24-1.24-1.24-3.24,0-4.48h0l29.01-29.02c1.24-1.24,3.24-1.24,4.48,0h0c1.23,1.23,1.23,3.24,0,4.47h0l-29.02,29.02c-.62.61-1.42.92-2.24.92h0c-.8,0-1.61-.3-2.23-.92h0Z"/><path class="cls-11" d="m1065.75,619.24c-1.39-45.45-2.29-46.34-47.74-47.74v-1.98c45.45-1.4,46.34-2.29,47.74-47.74h1.98c1.4,45.45,2.29,46.34,47.74,47.74v1.98c-45.45,1.39-46.34,2.29-47.74,47.74h-1.98Z"/><path class="cls-12" d="m1066.74,521.81c1.42,46.13,2.56,47.28,48.7,48.7-46.13,1.42-47.28,2.56-48.7,48.7-1.42-46.13-2.56-47.28-48.7-48.7,46.13-1.42,47.28-2.56,48.7-48.7m1.98-.06h-3.97c-.68,22.22-1.3,34.08-7,39.78-5.7,5.7-17.56,6.32-39.78,7v3.97c22.22.68,34.08,1.3,39.78,7,5.7,5.7,6.32,17.56,7,39.78h3.97c.68-22.22,1.3-34.08,7-39.78,5.7-5.7,17.56-6.32,39.78-7v-3.97c-22.22-.68-34.08-1.3-39.78-7-5.7-5.7-6.32-17.56-7-39.78h0Z"/><path class="cls-11" d="m1065.75,619.24c-1.39-45.45-2.29-46.34-47.74-47.74v-1.98c45.45-1.4,46.34-2.29,47.74-47.74h1.98c1.4,45.45,2.29,46.34,47.74,47.74v1.98c-45.45,1.39-46.34,2.29-47.74,47.74h-1.98Z"/><path class="cls-12" d="m1066.74,521.81c1.42,46.13,2.56,47.28,48.7,48.7-46.13,1.42-47.28,2.56-48.7,48.7-1.42-46.13-2.56-47.28-48.7-48.7,46.13-1.42,47.28-2.56,48.7-48.7m1.98-.06h-3.97c-.68,22.22-1.3,34.08-7,39.78-5.7,5.7-17.56,6.32-39.78,7v3.97c22.22.68,34.08,1.3,39.78,7,5.7,5.7,6.32,17.56,7,39.78h3.97c.68-22.22,1.3-34.08,7-39.78,5.7-5.7,17.56-6.32,39.78-7v-3.97c-22.22-.68-34.08-1.3-39.78-7-5.7-5.7-6.32-17.56-7-39.78h0Z"/><path class="cls-11" d="m111.62,201.88c-2.32-75.67-3.81-77.16-79.48-79.48v-1.98c75.67-2.32,77.16-3.81,79.48-79.48h1.98c2.32,75.67,3.81,77.16,79.48,79.48v1.98c-75.67,2.32-77.16,3.81-79.48,79.48h-1.98Z"/><path class="cls-12" d="m112.62,40.97c2.34,76.21,4.23,78.11,80.44,80.44-76.21,2.34-78.11,4.23-80.44,80.44-2.34-76.21-4.23-78.11-80.44-80.44,76.21-2.34,78.11-4.23,80.44-80.44m1.98-.06h-3.97c-1.14,37.04-2.18,56.83-11.94,66.58s-29.54,10.8-66.58,11.94v3.97c37.04,1.14,56.83,2.18,66.58,11.94,9.76,9.76,10.8,29.54,11.94,66.58h3.97c1.14-37.04,2.18-56.83,11.94-66.58,9.76-9.76,29.54-10.8,66.58-11.94v-3.97c-37.04-1.14-56.83-2.18-66.58-11.94s-10.8-29.54-11.94-66.58h0Z"/><path class="cls-11" d="m111.62,201.88c-2.32-75.67-3.81-77.16-79.48-79.48v-1.98c75.67-2.32,77.16-3.81,79.48-79.48h1.98c2.32,75.67,3.81,77.16,79.48,79.48v1.98c-75.67,2.32-77.16,3.81-79.48,79.48h-1.98Z"/><path class="cls-12" d="m112.62,40.97c2.34,76.21,4.23,78.11,80.44,80.44-76.21,2.34-78.11,4.23-80.44,80.44-2.34-76.21-4.23-78.11-80.44-80.44,76.21-2.34,78.11-4.23,80.44-80.44m1.98-.06h-3.97c-1.14,37.04-2.18,56.83-11.94,66.58s-29.54,10.8-66.58,11.94v3.97c37.04,1.14,56.83,2.18,66.58,11.94,9.76,9.76,10.8,29.54,11.94,66.58h3.97c1.14-37.04,2.18-56.83,11.94-66.58,9.76-9.76,29.54-10.8,66.58-11.94v-3.97c-37.04-1.14-56.83-2.18-66.58-11.94s-10.8-29.54-11.94-66.58h0Z"/><path class="cls-10" d="m1099.79,258.02c-1.39-45.45-2.29-46.34-47.74-47.74v-1.98c45.45-1.4,46.34-2.29,47.74-47.74h1.98c1.4,45.45,2.29,46.34,47.74,47.74v1.98c-45.45,1.39-46.34,2.29-47.74,47.74h-1.98Z"/><path class="cls-12" d="m1100.78,160.59c1.42,46.13,2.56,47.28,48.7,48.7-46.13,1.42-47.28,2.56-48.7,48.7-1.42-46.13-2.56-47.28-48.7-48.7,46.13-1.42,47.28-2.56,48.7-48.7m1.98-.06h-3.97c-.68,22.22-1.3,34.08-7,39.78s-17.56,6.32-39.78,7v3.97c22.22.68,34.08,1.3,39.78,7s6.32,17.56,7,39.78h3.97c.68-22.22,1.3-34.08,7-39.78s17.56-6.32,39.78-7v-3.97c-22.22-.68-34.08-1.3-39.78-7s-6.32-17.56-7-39.78h0Z"/><path class="cls-10" d="m1099.79,258.02c-1.39-45.45-2.29-46.34-47.74-47.74v-1.98c45.45-1.4,46.34-2.29,47.74-47.74h1.98c1.4,45.45,2.29,46.34,47.74,47.74v1.98c-45.45,1.39-46.34,2.29-47.74,47.74h-1.98Z"/><path class="cls-12" d="m1100.78,160.59c1.42,46.13,2.56,47.28,48.7,48.7-46.13,1.42-47.28,2.56-48.7,48.7-1.42-46.13-2.56-47.28-48.7-48.7,46.13-1.42,47.28-2.56,48.7-48.7m1.98-.06h-3.97c-.68,22.22-1.3,34.08-7,39.78s-17.56,6.32-39.78,7v3.97c22.22.68,34.08,1.3,39.78,7s6.32,17.56,7,39.78h3.97c.68-22.22,1.3-34.08,7-39.78s17.56-6.32,39.78-7v-3.97c-22.22-.68-34.08-1.3-39.78-7s-6.32-17.56-7-39.78h0Z"/></g></svg>