<?xml version="1.0" encoding="UTF-8"?><svg id="Layer_2" xmlns="http://www.w3.org/2000/svg" viewBox="0 0 91.64 91.64"><defs><style>.cls-1{fill:#fff;stroke:#232f3e;stroke-linecap:round;stroke-miterlimit:10;stroke-width:1.98px;}</style></defs><g id="Layer_2-2"><circle class="cls-1" cx="45.82" cy="45.82" r="44.83"/><circle class="cls-1" cx="45.82" cy="45.82" r="35.99"/><path class="cls-1" d="m66.2,50.5v5.05c0,5.19-3.79,11-8.56,11h-30.39v-9.88h5.06v-7.8h-3.93v-8.04h3.93v-5.29c0-9.89,6.38-15.36,14.8-15.36s15.57,5.32,15.57,16.9h-9.19c0-5.19-2.53-7.51-6.24-7.51-3.3,0-5.68,2.81-5.68,7.01v4.24h8.42v8.04h-8.42v7.8h13.4c1.61,0,2.03-1.05,2.03-2.6v-3.58h9.19Z"/></g></svg>