<?xml version="1.0" encoding="UTF-8"?><svg id="Layer_2" xmlns="http://www.w3.org/2000/svg" viewBox="0 0 23.56 39.81"><defs><style>.cls-1{fill:#fff;stroke:#232f3e;stroke-linejoin:round;}</style></defs><g id="Layer_2-2"><path class="cls-1" d="m1.43,38.38c-1.24-1.24-1.24-3.24,0-4.48h0l14.01-14.01L1.43,5.89h0C.19,4.67.19,2.66,1.43,1.43h0C2.66.19,4.66.19,5.89,1.43h0l16.24,16.24c.6.6.92,1.39.92,2.24h0c0,.84-.32,1.63-.92,2.23h0L5.89,38.38c-.62.62-1.42.93-2.23.93h0c-.81,0-1.62-.3-2.23-.93h0Z"/></g></svg>