<?xml version="1.0" encoding="UTF-8"?><svg id="Layer_2" xmlns="http://www.w3.org/2000/svg" viewBox="0 0 161.01 161.01"><defs><style>.cls-1{fill:#7638fa;}.cls-1,.cls-2{stroke-width:0px;}.cls-2{fill:#232f3e;}</style></defs><g id="Layer_2-2"><path class="cls-1" d="m79.51,160.98C77.19,85.3,75.71,83.82.03,81.5v-1.98C75.71,77.19,77.19,75.71,79.51.03h1.98c2.32,75.67,3.81,77.16,79.48,79.48v1.98c-75.67,2.32-77.16,3.81-79.48,79.48h-1.98Z"/><path class="cls-2" d="m80.5.06c2.34,76.21,4.23,78.11,80.44,80.44-76.21,2.34-78.11,4.23-80.44,80.44C78.17,84.74,76.27,82.84.06,80.5,76.27,78.17,78.17,76.27,80.5.06m1.98-.06h-3.97c-1.14,37.04-2.18,56.83-11.94,66.58-9.76,9.76-29.54,10.8-66.58,11.94v3.97c37.04,1.14,56.83,2.18,66.58,11.94,9.76,9.76,10.8,29.54,11.94,66.58h3.97c1.14-37.04,2.18-56.83,11.94-66.58,9.76-9.76,29.54-10.8,66.58-11.94v-3.97c-37.04-1.14-56.83-2.18-66.58-11.94-9.76-9.76-10.8-29.54-11.94-66.58h0Z"/><path class="cls-1" d="m79.51,160.98C77.19,85.3,75.71,83.82.03,81.5v-1.98C75.71,77.19,77.19,75.71,79.51.03h1.98c2.32,75.67,3.81,77.16,79.48,79.48v1.98c-75.67,2.32-77.16,3.81-79.48,79.48h-1.98Z"/><path class="cls-2" d="m80.5.06c2.34,76.21,4.23,78.11,80.44,80.44-76.21,2.34-78.11,4.23-80.44,80.44C78.17,84.74,76.27,82.84.06,80.5,76.27,78.17,78.17,76.27,80.5.06m1.98-.06h-3.97c-1.14,37.04-2.18,56.83-11.94,66.58-9.76,9.76-29.54,10.8-66.58,11.94v3.97c37.04,1.14,56.83,2.18,66.58,11.94,9.76,9.76,10.8,29.54,11.94,66.58h3.97c1.14-37.04,2.18-56.83,11.94-66.58,9.76-9.76,29.54-10.8,66.58-11.94v-3.97c-37.04-1.14-56.83-2.18-66.58-11.94-9.76-9.76-10.8-29.54-11.94-66.58h0Z"/></g></svg>