<?xml version="1.0" encoding="UTF-8"?><svg id="Layer_2" xmlns="http://www.w3.org/2000/svg" viewBox="0 0 317.64 425.27"><defs><style>.cls-1{fill:#fff;}.cls-1,.cls-2,.cls-3,.cls-4,.cls-5{stroke:#232f3e;stroke-miterlimit:10;stroke-width:1.98px;}.cls-1,.cls-2,.cls-3,.cls-5{stroke-linecap:round;}.cls-2{fill:#3e8dff;}.cls-3{fill:#bbf8ff;}.cls-4{fill:#7638fa;}.cls-5{fill:none;}</style></defs><g id="Layer_2-2"><path class="cls-1" d="m94.9,273.84s17.23,23.34,17.23,67.97h125.03l-24.17-114.53-118.08,46.56Z"/><path class="cls-1" d="m188.18,282.94c56.5-12.6,85.2-26.46,96.2-65.48,3.67-13.02,8.59-28.43-1.33-67.77-4.14-16.41,4.46-32.95,4.46-32.95,7.28-9.89-1.81-24.91-17.73-21.5-26.34,5.64-31.76-15.77-45.1-26.55-15.59-12.59-38.33-21.26-57.92-22.05,1.57,90.71-24.34,172.63-67.12,229.28"/><path class="cls-2" d="m192.19,3.46c.87,23.78-22.83,23.29-22.83,23.29-3.61-.15-9.96-.16-13.63-.02C77.45,29.57,11.09,87.35,19.15,173.61c2.62,28,10.18,53.96,25.11,75.44,16.29,5.12,31.74,12.16,46.1,20.86,3,2.13,6.09,4.14,9.27,6.01,39.92-52.85,65.14-127.71,67.06-211.18,59.91-9.82,25.49-61.29,25.49-61.29Z"/><path class="cls-1" d="m175.37,142.59c-3.73-1.86-7.9-2.99-12.34-3.19-16.93-.76-31.27,12.36-32.03,29.29-.76,16.93,12.36,31.27,29.29,32.03,12.44.56,23.47-6.37,28.76-16.8"/><path class="cls-1" d="m166.6,158.56c-1.56-.78-3.3-1.25-5.15-1.33-7.07-.32-13.05,5.16-13.36,12.22-.32,7.07,5.16,13.05,12.22,13.36,5.19.23,9.8-2.66,12-7.01"/><rect class="cls-3" x="247.67" y="66.45" width="7.22" height="67.67" rx="2.22" ry="2.22" transform="translate(-12.37 161.04) rotate(-34.73)"/><line class="cls-5" x1="172.84" y1="140.76" x2="241.13" y2="93.42"/><path class="cls-5" d="m131.04,169.59s-17.7,8.96-5.2,24.97"/><path class="cls-4" d="m257.31,399.35H118.18c-3.39,0-6.7-2.64-7.4-5.89l-13.69-63.83c-2.05-9.55,4.35-17.29,14.29-17.29h117.29c9.94,0,19.66,7.74,21.71,17.29l13.3,62.01c.91,4.26-1.94,7.71-6.37,7.71Z"/><line class="cls-4" x1="111.71" y1="312.34" x2="130.37" y2="399.35"/><line class="cls-4" x1="131.15" y1="312.34" x2="149.81" y2="399.35"/><line class="cls-4" x1="150.59" y1="312.34" x2="169.25" y2="399.35"/><line class="cls-4" x1="170.03" y1="312.34" x2="188.69" y2="399.35"/><line class="cls-4" x1="189.47" y1="312.34" x2="208.13" y2="399.35"/><line class="cls-4" x1="208.91" y1="312.34" x2="227.57" y2="399.35"/><line class="cls-4" x1="228.35" y1="312.34" x2="247.01" y2="399.35"/><path class="cls-4" d="m316.11,424.28c-17.96-40.22-58.39-68.43-105.09-68.43h-104.4c-46.7,0-87.13,28.21-105.09,68.43h314.58Z"/></g></svg>