<?xml version="1.0" encoding="UTF-8"?><svg id="Layer_2" xmlns="http://www.w3.org/2000/svg" viewBox="0 0 97.52 97.52"><defs><style>.cls-1{fill:#232f3e;}.cls-1,.cls-2{stroke-width:0px;}.cls-2{fill:#fff;}</style></defs><g id="Layer_2-2"><path class="cls-2" d="m47.77,97.49C46.37,52.04,45.48,51.14.03,49.75v-1.98C45.48,46.37,46.37,45.48,47.77.03h1.98c1.4,45.45,2.29,46.34,47.74,47.74v1.98c-45.45,1.39-46.34,2.29-47.74,47.74h-1.98Z"/><path class="cls-1" d="m48.76.06c1.42,46.13,2.56,47.28,48.7,48.7-46.13,1.42-47.28,2.56-48.7,48.7C47.34,51.32,46.2,50.17.06,48.76,46.2,47.34,47.34,46.2,48.76.06m1.98-.06h-3.97c-.68,22.22-1.3,34.08-7,39.78s-17.56,6.32-39.78,7v3.97c22.22.68,34.08,1.3,39.78,7s6.32,17.56,7,39.78h3.97c.68-22.22,1.3-34.08,7-39.78s17.56-6.32,39.78-7v-3.97c-22.22-.68-34.08-1.3-39.78-7s-6.32-17.56-7-39.78h0Z"/><path class="cls-2" d="m47.77,97.49C46.37,52.04,45.48,51.14.03,49.75v-1.98C45.48,46.37,46.37,45.48,47.77.03h1.98c1.4,45.45,2.29,46.34,47.74,47.74v1.98c-45.45,1.39-46.34,2.29-47.74,47.74h-1.98Z"/><path class="cls-1" d="m48.76.06c1.42,46.13,2.56,47.28,48.7,48.7-46.13,1.42-47.28,2.56-48.7,48.7C47.34,51.32,46.2,50.17.06,48.76,46.2,47.34,47.34,46.2,48.76.06m1.98-.06h-3.97c-.68,22.22-1.3,34.08-7,39.78s-17.56,6.32-39.78,7v3.97c22.22.68,34.08,1.3,39.78,7s6.32,17.56,7,39.78h3.97c.68-22.22,1.3-34.08,7-39.78s17.56-6.32,39.78-7v-3.97c-22.22-.68-34.08-1.3-39.78-7s-6.32-17.56-7-39.78h0Z"/></g></svg>