<?xml version="1.0" encoding="UTF-8"?><svg id="Layer_2" xmlns="http://www.w3.org/2000/svg" viewBox="0 0 99.39 99.39"><defs><style>.cls-1{fill:#3e8dff;}.cls-1,.cls-2{stroke-width:0px;}.cls-2{fill:#232f3e;}</style></defs><g id="Layer_2-2"><path class="cls-1" d="m49.7,98.89c-.27,0-.49-.21-.5-.48-1.41-45.9-2.31-46.8-48.21-48.21-.27,0-.48-.23-.48-.5s.21-.49.48-.5c45.9-1.41,46.8-2.31,48.21-48.21,0-.27.23-.48.5-.48s.49.21.5.48c1.41,45.9,2.31,46.8,48.21,48.21.27,0,.48.23.48.5s-.21.49-.48.5c-45.9,1.41-46.8,2.31-48.21,48.21,0,.27-.23.48-.5.48Z"/><path class="cls-2" d="m49.7,1c1.42,46.13,2.56,47.28,48.7,48.7-46.13,1.42-47.28,2.56-48.7,48.7-1.42-46.13-2.56-47.28-48.7-48.7,46.13-1.42,47.28-2.56,48.7-48.7m0-1c-.54,0-.98.43-1,.97-.69,22.48-1.33,34.48-7.29,40.44-5.96,5.96-17.97,6.6-40.44,7.29-.54.02-.97.46-.97,1s.43.98.97,1c22.48.69,34.48,1.33,40.44,7.29,5.96,5.96,6.6,17.97,7.29,40.44.02.54.46.97,1,.97s.98-.43,1-.97c.69-22.48,1.33-34.48,7.29-40.44,5.96-5.96,17.97-6.6,40.44-7.29.54-.02.97-.46.97-1s-.43-.98-.97-1c-22.48-.69-34.48-1.33-40.44-7.29-5.96-5.96-6.6-17.97-7.29-40.44-.02-.54-.46-.97-1-.97h0Z"/><path class="cls-1" d="m49.7,98.89c-.27,0-.49-.21-.5-.48-1.41-45.9-2.31-46.8-48.21-48.21-.27,0-.48-.23-.48-.5s.21-.49.48-.5c45.9-1.41,46.8-2.31,48.21-48.21,0-.27.23-.48.5-.48s.49.21.5.48c1.41,45.9,2.31,46.8,48.21,48.21.27,0,.48.23.48.5s-.21.49-.48.5c-45.9,1.41-46.8,2.31-48.21,48.21,0,.27-.23.48-.5.48Z"/><path class="cls-2" d="m49.7,1c1.42,46.13,2.56,47.28,48.7,48.7-46.13,1.42-47.28,2.56-48.7,48.7-1.42-46.13-2.56-47.28-48.7-48.7,46.13-1.42,47.28-2.56,48.7-48.7m0-1c-.54,0-.98.43-1,.97-.69,22.48-1.33,34.48-7.29,40.44-5.96,5.96-17.97,6.6-40.44,7.29-.54.02-.97.46-.97,1s.43.98.97,1c22.48.69,34.48,1.33,40.44,7.29,5.96,5.96,6.6,17.97,7.29,40.44.02.54.46.97,1,.97s.98-.43,1-.97c.69-22.48,1.33-34.48,7.29-40.44,5.96-5.96,17.97-6.6,40.44-7.29.54-.02.97-.46.97-1s-.43-.98-.97-1c-22.48-.69-34.48-1.33-40.44-7.29-5.96-5.96-6.6-17.97-7.29-40.44-.02-.54-.46-.97-1-.97h0Z"/></g></svg>