<svg width="17" height="18" viewBox="0 0 17 18" fill="none" xmlns="http://www.w3.org/2000/svg">
<path d="M14.3438 14.8436V8.17235C14.3438 8.09833 14.3283 8.02513 14.2983 7.95744C14.2684 7.88974 14.2246 7.82906 14.1699 7.77926L8.857 2.9492C8.75921 2.86029 8.63178 2.81103 8.49962 2.81104C8.36745 2.81104 8.24003 2.86031 8.14224 2.94922L2.83011 7.77927C2.77535 7.82906 2.73159 7.88974 2.70166 7.95743C2.67172 8.02512 2.65625 8.09832 2.65625 8.17233V14.8436" stroke="white" stroke-linecap="round" stroke-linejoin="round"/>
<path d="M1.0625 14.8438H15.9375" stroke="white" stroke-linecap="round" stroke-linejoin="round"/>
<path d="M10.0934 14.8433V11.1245C10.0934 10.9836 10.0374 10.8485 9.93778 10.7489C9.83816 10.6492 9.70303 10.5933 9.56213 10.5933H7.43713C7.29624 10.5933 7.16111 10.6492 7.06148 10.7489C6.96185 10.8485 6.90588 10.9836 6.90588 11.1245V14.8433" stroke="white" stroke-linecap="round" stroke-linejoin="round"/>
</svg>
