<?xml version="1.0" encoding="UTF-8"?><svg id="Layer_1" xmlns="http://www.w3.org/2000/svg" viewBox="0 0 201.65 32.02"><path d="M34.78,13.99h-4.62v-1.62h11.22v1.62h-4.62v13.19h-1.98v-13.19Z" style="fill:#fff;"/><path d="M42.49,22.21c.03,2.61,1.72,3.7,3.74,3.7,1.43,0,2.28-.25,3.02-.54l.36,1.4c-.68.32-1.92.67-3.64.67-3.35,0-5.33-2.17-5.33-5.38s1.92-5.73,5.1-5.73c3.58,0,4.49,3.03,4.49,5,0,.38-.03.67-.06.89h-7.67ZM48.31,20.84c.03-1.21-.52-3.12-2.73-3.12-2.02,0-2.86,1.78-3.02,3.12h5.75Z" style="fill:#fff;"/><path d="M60.4,26.82c-.52.25-1.66.61-3.12.61-3.28,0-5.4-2.17-5.4-5.45s2.28-5.67,5.85-5.67c1.17,0,2.21.29,2.73.57l-.46,1.47c-.49-.25-1.2-.51-2.28-.51-2.5,0-3.84,1.82-3.84,4.01,0,2.45,1.63,3.98,3.77,3.98,1.14,0,1.85-.25,2.44-.51l.29,1.5Z" style="fill:#fff;"/><path d="M62.71,11.56h1.98v6.66h.03c.33-.54.81-1.05,1.43-1.4.59-.32,1.27-.54,2.02-.54,1.46,0,3.8.89,3.8,4.52v6.34h-1.98v-6.08c0-1.72-.65-3.15-2.5-3.15-1.27,0-2.28.89-2.63,1.91-.1.29-.13.57-.13.92v6.44h-1.98v-15.61h-.03Z" style="fill:#fff;"/><path d="M75.16,19.43c0-1.11-.03-2.01-.1-2.87h1.76l.1,1.75h.03c.55-.99,1.79-1.98,3.58-1.98,1.5,0,3.84.89,3.84,4.52v6.34h-1.98v-6.15c0-1.72-.65-3.15-2.5-3.15-1.27,0-2.28.89-2.63,1.98-.1.25-.13.57-.13.89v6.4h-1.95v-7.74Z" style="fill:#fff;"/><path d="M97.46,21.76c0,3.95-2.8,5.64-5.4,5.64-2.93,0-5.2-2.1-5.2-5.48s2.41-5.64,5.4-5.64c3.09.03,5.2,2.26,5.2,5.48ZM88.84,21.89c0,2.33,1.33,4.08,3.28,4.08s3.32-1.75,3.32-4.14c0-1.82-.91-4.08-3.25-4.08-2.31.03-3.35,2.13-3.35,4.14Z" style="fill:#fff;"/><path d="M99.96,11.56h1.98v15.61h-1.98v-15.61Z" style="fill:#fff;"/><path d="M115.08,21.76c0,3.95-2.8,5.64-5.4,5.64-2.93,0-5.2-2.1-5.2-5.48s2.4-5.64,5.4-5.64c3.09.03,5.2,2.26,5.2,5.48ZM106.49,21.89c0,2.33,1.33,4.08,3.28,4.08s3.32-1.75,3.32-4.14c0-1.82-.91-4.08-3.25-4.08-2.34.03-3.35,2.13-3.35,4.14Z" style="fill:#fff;"/><path d="M126.88,25.61c0,2.45-.52,3.95-1.56,4.87-1.07.96-2.6,1.27-3.97,1.27s-2.73-.32-3.61-.89l.49-1.5c.71.48,1.85.86,3.19.86,2.01,0,3.51-1.02,3.51-3.73v-1.18h-.03c-.58.99-1.79,1.78-3.45,1.78-2.7,0-4.62-2.23-4.62-5.19,0-3.6,2.41-5.64,4.91-5.64,1.89,0,2.89.96,3.38,1.82h.03l.06-1.59h1.76c-.07.73-.1,1.62-.1,2.9v6.21ZM124.89,20.74c0-.32-.03-.61-.1-.86-.36-1.15-1.3-2.07-2.76-2.07-1.89,0-3.22,1.56-3.22,4.01,0,2.1,1.11,3.82,3.22,3.82,1.23,0,2.34-.73,2.73-1.98.1-.32.16-.7.16-1.02v-1.91h-.03Z" style="fill:#fff;"/><path d="M130.84,16.53l2.37,6.28c.26.7.55,1.53.72,2.17h.03c.2-.64.42-1.47.68-2.23l2.15-6.24h2.08l-2.93,7.61c-1.4,3.66-2.37,5.51-3.74,6.66-.98.83-1.92,1.15-2.44,1.24l-.49-1.59c.49-.16,1.14-.48,1.72-.96.55-.41,1.2-1.18,1.66-2.17.1-.19.16-.35.16-.48,0-.1-.03-.25-.16-.51l-4-9.81h2.18v.03Z" style="fill:#fff;"/><path d="M143.2,22.52l-1.56,4.65h-2.02l5.17-14.81h2.34l5.17,14.81h-2.08l-1.62-4.65h-5.4ZM148.2,21.03l-1.53-4.27c-.32-.96-.55-1.85-.78-2.71h-.03c-.23.86-.46,1.78-.75,2.68l-1.5,4.3h4.58Z" style="fill:#93c953;"/><path d="M163.51,11.56v12.87c0,.96.03,2.04.1,2.74h-1.76l-.1-1.85h-.07c-.58,1.18-1.88,2.1-3.67,2.1-2.63,0-4.68-2.17-4.68-5.42-.03-3.54,2.24-5.7,4.88-5.7,1.69,0,2.79.76,3.28,1.59h.03v-6.37h1.98v.03ZM161.56,20.87c0-.25-.03-.57-.1-.83-.29-1.21-1.36-2.23-2.86-2.23-2.05,0-3.25,1.75-3.25,4.08,0,2.17,1.1,3.95,3.22,3.95,1.33,0,2.54-.89,2.89-2.33.07-.25.1-.54.1-.83v-1.82Z" style="fill:#93c953;"/><path d="M167.58,16.53l2.15,5.96c.36.99.65,1.88.88,2.74h.06c.26-.89.55-1.75.91-2.74l2.11-5.96h2.08l-4.26,10.64h-1.88l-4.13-10.64h2.08Z" style="fill:#93c953;"/><path d="M179.83,13.54c0,.67-.49,1.18-1.27,1.18-.71,0-1.2-.54-1.2-1.18,0-.67.49-1.21,1.24-1.21s1.24.54,1.24,1.21ZM177.62,27.18v-10.64h1.98v10.64h-1.98Z" style="fill:#93c953;"/><path d="M190.63,26.82c-.52.25-1.66.61-3.12.61-3.28,0-5.4-2.17-5.4-5.45s2.27-5.67,5.85-5.67c1.17,0,2.21.29,2.73.57l-.46,1.47c-.46-.25-1.2-.51-2.28-.51-2.5,0-3.84,1.82-3.84,4.01,0,2.45,1.63,3.98,3.77,3.98,1.14,0,1.85-.25,2.44-.51l.29,1.5Z" style="fill:#93c953;"/><path d="M193.91,22.21c.03,2.61,1.72,3.7,3.74,3.7,1.43,0,2.28-.25,3.02-.54l.36,1.4c-.68.32-1.92.67-3.64.67-3.35,0-5.33-2.17-5.33-5.38s1.92-5.73,5.1-5.73c3.58,0,4.49,3.03,4.49,5,0,.38-.03.67-.07.89h-7.67ZM199.69,20.84c.03-1.21-.52-3.12-2.73-3.12-2.02,0-2.86,1.78-3.02,3.12h5.75Z" style="fill:#93c953;"/><path d="M5.49,11.18H0v15.77h5.49v-15.77Z" style="fill:#93c953;"/><path d="M19.08,14.02c-.26-1.11-.52-2.17-.81-3.19h-.13c-.26,1.05-.49,2.1-.75,3.22-.26,1.08-.52,2.13-.81,3.12l-.49,1.82h4.26l-.46-1.85c-.29-.99-.55-2.01-.81-3.12Z" style="fill:#93c953;"/><path d="M0,0v7.45h21.03l6.21,19.5h.26V0H0Z" style="fill:#93c953;"/><path d="M10.04,24.88l4.36-13.7h-4.36v13.7Z" style="fill:#93c953;"/><path d="M13.98,26.95h8.48l-1.17-4.56h-6.11l-1.2,4.56Z" style="fill:#93c953;"/></svg>